<mxfile host="app.diagrams.net" agent="Mozilla/5.0 (X11; Linux x86_64) AppleWebKit/537.36 (KHTML, like Gecko) Chrome/138.0.0.0 Safari/537.36" version="27.2.0">
  <diagram name="Page-1" id="97916047-d0de-89f5-080d-49f4d83e522f">
    <mxGraphModel dx="1426" dy="699" grid="1" gridSize="10" guides="1" tooltips="1" connect="1" arrows="1" fold="1" page="1" pageScale="1.5" pageWidth="1169" pageHeight="827" background="none" math="0" shadow="0">
      <root>
        <mxCell id="0" />
        <mxCell id="1" parent="0" />
        <mxCell id="XdiJBWk4-uqrkSBXIwHd-10" value="external_tls" style="rounded=1;shadow=1;fontStyle=1;fontSize=14;verticalAlign=top;strokeWidth=2;fillColor=#fad7ac;strokeColor=#b46504;" vertex="1" parent="1">
          <mxGeometry x="340" y="190" width="250" height="200" as="geometry" />
        </mxCell>
        <mxCell id="XdiJBWk4-uqrkSBXIwHd-9" value="internal_tls" style="rounded=1;shadow=1;fontStyle=1;fontSize=14;verticalAlign=top;strokeWidth=2;fillColor=#fad7ac;strokeColor=#b46504;" vertex="1" parent="1">
          <mxGeometry x="640" y="190" width="300" height="200" as="geometry" />
        </mxCell>
        <mxCell id="jF1T-Y88L3VKpQeDag-w-56" value="Traefik" style="rounded=1;shadow=1;fontStyle=1;fontSize=14;verticalAlign=top;fillColor=#eeeeee;strokeColor=#36393d;" parent="1" vertex="1">
          <mxGeometry x="480" y="230" width="270" height="120" as="geometry" />
        </mxCell>
        <mxCell id="XdiJBWk4-uqrkSBXIwHd-3" style="edgeStyle=orthogonalEdgeStyle;rounded=1;orthogonalLoop=1;jettySize=auto;html=1;entryX=0;entryY=0.5;entryDx=0;entryDy=0;strokeWidth=2;curved=0;fillColor=#eeeeee;strokeColor=#36393d;" edge="1" parent="1" source="2" target="3">
          <mxGeometry relative="1" as="geometry">
            <mxPoint x="420" y="340" as="targetPoint" />
          </mxGeometry>
        </mxCell>
        <mxCell id="2" value="user" style="rounded=1;shadow=1;fontStyle=1;fontSize=14;fillColor=#eeeeee;strokeColor=#36393d;" parent="1" vertex="1">
          <mxGeometry x="350" y="270" width="70" height="60" as="geometry" />
        </mxCell>
        <mxCell id="XdiJBWk4-uqrkSBXIwHd-4" style="edgeStyle=orthogonalEdgeStyle;rounded=1;orthogonalLoop=1;jettySize=auto;html=1;exitX=1;exitY=0.5;exitDx=0;exitDy=0;entryX=0;entryY=0.5;entryDx=0;entryDy=0;strokeWidth=2;curved=0;fillColor=#eeeeee;strokeColor=#36393d;" edge="1" parent="1" source="3" target="jF1T-Y88L3VKpQeDag-w-55">
          <mxGeometry relative="1" as="geometry" />
        </mxCell>
        <mxCell id="3" value="encrypt" style="rounded=1;shadow=1;fontStyle=1;fontSize=14;fillColor=#eeeeee;strokeColor=#36393d;" parent="1" vertex="1">
          <mxGeometry x="500" y="270" width="80" height="60" as="geometry" />
        </mxCell>
        <mxCell id="XdiJBWk4-uqrkSBXIwHd-7" style="edgeStyle=orthogonalEdgeStyle;rounded=1;orthogonalLoop=1;jettySize=auto;html=1;exitX=1;exitY=0.25;exitDx=0;exitDy=0;entryX=0;entryY=0.5;entryDx=0;entryDy=0;strokeWidth=2;curved=0;fillColor=#eeeeee;strokeColor=#36393d;" edge="1" parent="1" source="jF1T-Y88L3VKpQeDag-w-55" target="XdiJBWk4-uqrkSBXIwHd-5">
          <mxGeometry relative="1" as="geometry" />
        </mxCell>
        <mxCell id="XdiJBWk4-uqrkSBXIwHd-8" style="edgeStyle=orthogonalEdgeStyle;rounded=1;orthogonalLoop=1;jettySize=auto;html=1;exitX=1;exitY=0.75;exitDx=0;exitDy=0;entryX=0;entryY=0.5;entryDx=0;entryDy=0;strokeWidth=2;curved=0;fillColor=#eeeeee;strokeColor=#36393d;" edge="1" parent="1" source="jF1T-Y88L3VKpQeDag-w-55" target="XdiJBWk4-uqrkSBXIwHd-6">
          <mxGeometry relative="1" as="geometry" />
        </mxCell>
        <mxCell id="jF1T-Y88L3VKpQeDag-w-55" value="re-encrypt" style="rounded=1;shadow=1;fontStyle=1;fontSize=14;fillColor=#eeeeee;strokeColor=#36393d;" parent="1" vertex="1">
          <mxGeometry x="650" y="270" width="80" height="60" as="geometry" />
        </mxCell>
        <mxCell id="XdiJBWk4-uqrkSBXIwHd-5" value="cos&#xa;app-1" style="rounded=1;shadow=1;fontStyle=1;fontSize=14;fillColor=#eeeeee;strokeColor=#36393d;" vertex="1" parent="1">
          <mxGeometry x="840" y="220" width="90" height="60" as="geometry" />
        </mxCell>
        <mxCell id="XdiJBWk4-uqrkSBXIwHd-6" value="cos&#xa;app-2" style="rounded=1;shadow=1;fontStyle=1;fontSize=14;fillColor=#eeeeee;strokeColor=#36393d;" vertex="1" parent="1">
          <mxGeometry x="840" y="310" width="90" height="60" as="geometry" />
        </mxCell>
        <mxCell id="XdiJBWk4-uqrkSBXIwHd-11" style="edgeStyle=orthogonalEdgeStyle;rounded=1;orthogonalLoop=1;jettySize=auto;html=1;exitX=0.5;exitY=0;exitDx=0;exitDy=0;entryX=0.5;entryY=1;entryDx=0;entryDy=0;strokeWidth=2;curved=0;startArrow=classic;startFill=1;fillColor=#eeeeee;strokeColor=#36393d;" edge="1" parent="1" source="XdiJBWk4-uqrkSBXIwHd-6" target="XdiJBWk4-uqrkSBXIwHd-5">
          <mxGeometry relative="1" as="geometry">
            <mxPoint x="800" y="295" as="sourcePoint" />
            <mxPoint x="910" y="270" as="targetPoint" />
          </mxGeometry>
        </mxCell>
      </root>
    </mxGraphModel>
  </diagram>
</mxfile>
